<?xml version="1.0" encoding="UTF-8"?><svg id="Layer_1" xmlns="http://www.w3.org/2000/svg" viewBox="0 0 353.04 353.04"><path d="M314.34,286.8c24.21-30.21,38.7-68.55,38.7-110.28C353.04,79.03,274.01,0,176.52,0S0,79.03,0,176.52s79.03,176.52,176.52,176.52c27.73,0,53.97-6.4,77.32-17.8l46.76,16.91c10.18,3.68,20.69-4.62,19.46-15.38l-5.71-49.97Z" style="fill:#fff; stroke-width:0px;"/><path d="M236.07,149.84l8.57-9.57,20,29.83h25.14l-30.85-46.15,28.56-32.64h-25.14l-26.28,30.39v-30.39h-21.71v78.79h21.71v-20.26ZM99.39,231.44h12.57v8.44s-4.57,5.07-13.71,5.07c-13.14,0-22.85-9.57-22.85-22.51s9.71-22.51,22.85-22.51,20.57,10.13,20.57,10.13l13.14-13.51s-10.85-15.76-33.71-15.76c-25.14,0-44.56,19.14-44.56,41.65s19.42,41.65,44.56,41.65c22.85,0,35.42-15.76,35.42-15.76v-30.39h-34.28v13.51ZM170.94,154.34c-10.28,0-17.14-8.44-17.14-8.44l-12.57,12.94s10.85,13.51,31.99,13.51c20,0,31.99-11.82,31.99-25.89,0-27.58-37.13-21.95-37.13-32.64,0-3.38,3.43-6.75,8.57-6.75,7.88,0,13.14,6.19,13.14,6.19l12.57-12.95s-8.57-11.26-27.99-11.26c-18.28,0-30.28,11.82-30.28,24.2,0,27.58,37.13,21.95,37.13,32.64,0,4.5-4,8.44-10.28,8.44ZM200.51,220.19s10.28-4.5,10.28-16.32c0-10.69-10.28-20.82-27.42-20.82h-35.99v78.79h38.28c17.71,0,29.14-11.26,29.14-23.08,0-14.07-14.28-18.57-14.28-18.57ZM169.09,199.92h12c4.57,0,7.43,2.81,7.43,6.75s-2.74,6.75-7.43,6.75h-12v-13.51ZM183.94,244.95h-14.85v-15.76h14.85c5.14,0,8.57,3.38,8.57,7.88s-3.43,7.88-8.57,7.88ZM286.78,234.82s-8,10.13-21.71,10.13-22.85-9.57-22.85-22.51,9.71-22.51,22.85-22.51,20.57,10.13,20.57,10.13l13.14-13.51s-10.85-15.76-33.71-15.76c-25.14,0-44.56,19.14-44.56,41.65s19.42,41.65,44.56,41.65c23.42,0,34.28-15.76,34.28-15.76l-12.57-13.51ZM88.1,91.3l-30.28,78.79h23.42l5.71-16.88h26.28l5.71,16.88h23.42l-30.28-78.79h-23.99ZM92.67,136.33l7.43-23.08,7.43,23.08h-14.85Z" style="fill:#005ba5; stroke-width:0px;"/></svg>