<?xml version="1.0" encoding="UTF-8"?><svg xmlns="http://www.w3.org/2000/svg" viewBox="0 0 4192.45 1486.33"><g style="isolation:isolate;"><g id="Layer_1"><path d="M3173.5,729.16h-219.22c-20.87,0-37.94,17.07-37.94,37.94v177.37c0,20.87,17.07,37.94,37.94,37.94h178.12l59.97,42.63c7.99,5.68,19.07-.03,19.07-9.84v-248.09c0-20.87-17.07-37.94-37.94-37.94Z" style="fill:#005ba5; stroke-width:0px;"/><text transform="translate(194.37 641.96)" style="fill:#000; font-family:TTNorms-Regular, &apos;TT Norms&apos;; font-size:91.52px;"><tspan x="0" y="0" style="letter-spacing:-.04em;">A</tspan><tspan x="60.17" y="0" style="letter-spacing:-.05em;">S</tspan><tspan x="107.1" y="0" style="letter-spacing:-.03em;">K</tspan></text><text transform="translate(355.07 641.96)" style="fill:#000; font-family:TTNorms-Regular, &apos;TT Norms&apos;; font-size:91.52px;"><tspan x="0" y="0" style="letter-spacing:-.05em;">G</tspan><tspan x="67.88" y="0" style="letter-spacing:-.06em;">B</tspan><tspan x="123.88" y="0" style="letter-spacing:-.03em;">C</tspan></text><path d="M209.32,183.1l-8.05,22.15h-21.48l36.91-93.96h21.48l36.91,93.96h-21.48l-8.05-22.15h-36.24ZM227.44,134.77l-11.41,30.87h22.82l-11.41-30.87Z" style="fill:#f78234; stroke-width:0px;"/><path d="M306.08,136.98c0-14.77,12.75-27.52,32.89-27.52s30.87,12.75,30.87,12.75l-12.08,12.75s-6.71-8.05-17.45-8.05c-8.05,0-12.75,4.7-12.75,10.07,0,17.45,46.31,7.38,46.31,40.94,0,16.78-12.75,29.53-35.57,29.53s-35.57-15.44-35.57-15.44l12.08-12.08s8.05,10.07,22.15,10.07c10.07,0,15.44-5.37,15.44-12.08,0-17.45-46.31-7.38-46.31-40.94Z" style="fill:#7482c0; stroke-width:0px;"/><path d="M429.58,152.41l36.91-40.94h23.49l-34.9,38.93,37.58,55.04h-23.49l-27.52-40.27-12.08,13.42v26.85h-20.13v-93.96h20.13v40.94Z" style="fill:#019ddd; stroke-width:0px;"/><path d="M271.54,301.37v34.9s-14.09,18.12-40.94,18.12c-28.86,0-51.01-22.15-51.01-49s22.15-48.99,51.01-48.99c26.17,0,38.93,18.79,38.93,18.79l-12.75,12.75s-8.72-13.42-26.17-13.42-30.87,13.42-30.87,30.87,13.42,30.87,30.87,30.87c14.09,0,20.81-7.38,20.81-7.38v-12.75h-16.78v-14.77h36.91Z" style="fill:#06b03f; stroke-width:0px;"/><path d="M305.4,352.38v-93.96h40.27c17.45,0,29.53,12.08,29.53,24.83,0,13.42-10.74,19.46-10.74,19.46,0,0,15.44,6.04,15.44,22.15,0,14.5-12.75,27.52-31.95,27.52h-42.55ZM325.53,275.19v20.13h18.79c6.71,0,10.74-4.03,10.74-10.07s-4.03-10.07-10.74-10.07h-18.79ZM347.01,335.6c7.38,0,12.75-5.37,12.75-12.08s-5.37-12.08-12.75-12.08h-21.48v24.16h21.48Z" style="fill:#ffd204; stroke-width:0px;"/><path d="M491.99,275.19l-12.75,12.75s-8.73-13.42-26.18-13.42-30.87,13.42-30.87,30.87,13.42,30.87,30.87,30.87,27.52-13.42,27.52-13.42l12.08,12.75s-13.42,18.79-39.6,18.79c-28.86,0-51.01-22.15-51.01-49s22.15-48.99,51.01-48.99c26.18,0,38.93,18.79,38.93,18.79Z" style="fill:#c3abd3; stroke-width:0px;"/><polygon points="421.59 414.95 477.13 463.55 489.28 463.55 489.28 414.95 421.59 414.95" style="fill:#005ba5; stroke-width:0px;"/><rect x="184.48" y="401.34" width="304.79" height="13.61" style="fill:#005ba5; stroke-width:0px;"/><rect x="184.48" y="51.46" width="304.79" height="13.61" style="fill:#005ba5; stroke-width:0px;"/><path d="M104.26,837.85l-6.29,17.29h-16.76l28.81-73.33h16.76l28.81,73.33h-16.76l-6.29-17.29h-28.29ZM118.4,800.14l-8.9,24.1h17.81l-8.9-24.1Z" style="fill:#f78234; stroke-width:0px;"/><path d="M179.78,801.86c0-11.52,9.95-21.48,25.67-21.48s24.1,9.95,24.1,9.95l-9.43,9.95s-5.24-6.29-13.62-6.29c-6.29,0-9.95,3.67-9.95,7.86,0,13.62,36.14,5.76,36.14,31.95,0,13.1-9.95,23.05-27.76,23.05s-27.76-12.05-27.76-12.05l9.43-9.43s6.29,7.86,17.29,7.86c7.86,0,12.05-4.19,12.05-9.43,0-13.62-36.14-5.76-36.14-31.95Z" style="fill:#7482c0; stroke-width:0px;"/><path d="M276.16,813.91l28.81-31.95h18.33l-27.24,30.38,29.33,42.95h-18.33l-21.48-31.43-9.43,10.48v20.95h-15.71v-73.33h15.71v31.95Z" style="fill:#019ddd; stroke-width:0px;"/><path d="M152.82,930.16v27.24s-11,14.14-31.95,14.14c-22.52,0-39.81-17.29-39.81-38.24s17.29-38.24,39.81-38.24c20.43,0,30.38,14.67,30.38,14.67l-9.95,9.95s-6.81-10.48-20.43-10.48-24.1,10.48-24.1,24.1,10.48,24.09,24.1,24.09c11,0,16.24-5.76,16.24-5.76v-9.95h-13.1v-11.52h28.81Z" style="fill:#06b03f; stroke-width:0px;"/><path d="M179.25,969.97v-73.33h31.43c13.62,0,23.05,9.43,23.05,19.38,0,10.48-8.38,15.19-8.38,15.19,0,0,12.05,4.71,12.05,17.29,0,11.31-9.95,21.48-24.93,21.48h-33.21ZM194.96,909.73v15.71h14.67c5.24,0,8.38-3.14,8.38-7.86s-3.14-7.86-8.38-7.86h-14.67ZM211.72,956.87c5.76,0,9.95-4.19,9.95-9.43s-4.19-9.43-9.95-9.43h-16.76v18.86h16.76Z" style="fill:#ffd204; stroke-width:0px;"/><path d="M324.87,909.73l-9.95,9.95s-6.81-10.48-20.43-10.48-24.1,10.48-24.1,24.1,10.48,24.09,24.1,24.09,21.48-10.48,21.48-10.48l9.43,9.95s-10.48,14.67-30.9,14.67c-22.52,0-39.81-17.29-39.81-38.24s17.29-38.24,39.81-38.24c20.43,0,30.38,14.67,30.38,14.67Z" style="fill:#c3abd3; stroke-width:0px;"/><polygon points="269.93 1018.81 313.27 1056.73 322.75 1056.73 322.75 1018.81 269.93 1018.81" style="fill:#005ba5; stroke-width:0px;"/><rect x="84.88" y="1008.18" width="237.88" height="10.62" style="fill:#005ba5; stroke-width:0px;"/><rect x="84.88" y="735.11" width="237.88" height="10.62" style="fill:#005ba5; stroke-width:0px;"/><path d="M790.46,183.1l-8.05,22.15h-21.48l36.91-93.96h21.48l36.91,93.96h-21.48l-8.05-22.15h-36.24ZM808.58,134.77l-11.41,30.87h22.82l-11.41-30.87Z" style="fill:#f78234; stroke-width:0px;"/><path d="M887.22,136.98c0-14.77,12.75-27.52,32.89-27.52s30.87,12.75,30.87,12.75l-12.08,12.75s-6.71-8.05-17.45-8.05c-8.05,0-12.75,4.7-12.75,10.07,0,17.45,46.31,7.38,46.31,40.94,0,16.78-12.75,29.53-35.57,29.53s-35.57-15.44-35.57-15.44l12.08-12.08s8.05,10.07,22.15,10.07c10.07,0,15.44-5.37,15.44-12.08,0-17.45-46.31-7.38-46.31-40.94Z" style="fill:#7482c0; stroke-width:0px;"/><path d="M1010.71,152.41l36.91-40.94h23.49l-34.9,38.93,37.58,55.04h-23.49l-27.52-40.27-12.08,13.42v26.85h-20.13v-93.96h20.13v40.94Z" style="fill:#019ddd; stroke-width:0px;"/><path d="M852.68,301.37v34.9s-14.09,18.12-40.94,18.12c-28.86,0-51.01-22.15-51.01-49s22.15-48.99,51.01-48.99c26.17,0,38.93,18.79,38.93,18.79l-12.75,12.75s-8.72-13.42-26.17-13.42-30.87,13.42-30.87,30.87,13.42,30.87,30.87,30.87c14.09,0,20.81-7.38,20.81-7.38v-12.75h-16.78v-14.77h36.91Z" style="fill:#06b03f; stroke-width:0px;"/><path d="M886.54,352.38v-93.96h40.27c17.45,0,29.53,12.08,29.53,24.83,0,13.42-10.74,19.46-10.74,19.46,0,0,15.44,6.04,15.44,22.15,0,14.5-12.75,27.52-31.95,27.52h-42.55ZM906.67,275.19v20.13h18.79c6.71,0,10.74-4.03,10.74-10.07s-4.03-10.07-10.74-10.07h-18.79ZM928.15,335.6c7.38,0,12.75-5.37,12.75-12.08s-5.37-12.08-12.75-12.08h-21.48v24.16h21.48Z" style="fill:#ffd204; stroke-width:0px;"/><path d="M1073.13,275.19l-12.75,12.75s-8.73-13.42-26.18-13.42-30.87,13.42-30.87,30.87,13.42,30.87,30.87,30.87,27.52-13.42,27.52-13.42l12.08,12.75s-13.42,18.79-39.6,18.79c-28.86,0-51.01-22.15-51.01-49s22.15-48.99,51.01-48.99c26.18,0,38.93,18.79,38.93,18.79Z" style="fill:#c3abd3; stroke-width:0px;"/><path d="M790.46,486.34l-8.05,22.15h-21.48l36.91-93.96h21.48l36.91,93.96h-21.48l-8.05-22.15h-36.24ZM808.58,438.01l-11.41,30.87h22.82l-11.41-30.87Z" style="fill:#f78234; stroke-width:0px;"/><path d="M887.22,440.22c0-14.77,12.75-27.52,32.89-27.52s30.87,12.75,30.87,12.75l-12.08,12.75s-6.71-8.05-17.45-8.05c-8.05,0-12.75,4.7-12.75,10.07,0,17.45,46.31,7.38,46.31,40.94,0,16.78-12.75,29.53-35.57,29.53s-35.57-15.44-35.57-15.44l12.08-12.08s8.05,10.07,22.15,10.07c10.07,0,15.44-5.37,15.44-12.08,0-17.45-46.31-7.38-46.31-40.94Z" style="fill:#7482c0; stroke-width:0px;"/><path d="M1010.71,455.65l36.91-40.94h23.49l-34.9,38.93,37.58,55.04h-23.49l-27.52-40.27-12.08,13.42v26.85h-20.13v-93.96h20.13v40.94Z" style="fill:#019ddd; stroke-width:0px;"/><path d="M852.68,604.61v34.9s-14.09,18.12-40.94,18.12c-28.86,0-51.01-22.15-51.01-49s22.15-48.99,51.01-48.99c26.17,0,38.93,18.79,38.93,18.79l-12.75,12.75s-8.72-13.42-26.17-13.42-30.87,13.42-30.87,30.87,13.42,30.87,30.87,30.87c14.09,0,20.81-7.38,20.81-7.38v-12.75h-16.78v-14.77h36.91Z" style="fill:#06b03f; stroke-width:0px;"/><path d="M886.54,655.62v-93.96h40.27c17.45,0,29.53,12.08,29.53,24.83,0,13.42-10.74,19.46-10.74,19.46,0,0,15.44,6.04,15.44,22.15,0,14.5-12.75,27.52-31.95,27.52h-42.55ZM906.67,578.43v25.1c0,1.3,1.59,1.92,2.47.97l5.52-5.94h10.8c6.71,0,10.74-4.03,10.74-10.07s-4.03-10.07-10.74-10.07h-18.79ZM928.15,638.84c7.38,0,12.75-5.37,12.75-12.08s-5.37-12.08-12.75-12.08h-21.48v24.16h21.48Z" style="fill:#ffd204; stroke-width:0px;"/><path d="M1073.13,578.43l-12.75,12.75s-8.73-13.42-26.18-13.42-30.87,13.42-30.87,30.87,13.42,30.87,30.87,30.87,27.52-13.42,27.52-13.42l12.08,12.75s-13.42,18.79-39.6,18.79c-28.86,0-51.01-22.15-51.01-49s22.15-48.99,51.01-48.99c26.18,0,38.93,18.79,38.93,18.79Z" style="fill:#c3abd3; stroke-width:0px;"/><polygon points="1080.69 248.74 1122.45 248.74 1122.45 302.38 1032.19 302.38 1080.69 248.74" style="fill:#fff; stroke-width:0px;"/><polygon points="1080.69 359.03 1122.45 359.03 1122.45 305.39 1032.19 305.39 1080.69 359.03" style="fill:#fff; stroke-width:0px;"/><polygon points="1042.5 307.19 1042.48 300.5 1093.27 297.77 1093.27 309.79 1042.5 307.19" style="fill:#005ba5; stroke-width:0px;"/><polygon points="1047.95 294.57 1045.44 288.37 1082.74 270.45 1087.21 281.6 1047.95 294.57" style="fill:#005ba5; stroke-width:0px;"/><polygon points="1045.56 319.16 1048.17 312.99 1087.21 326.69 1082.49 337.75 1045.56 319.16" style="fill:#005ba5; stroke-width:0px;"/><path d="M2382.57,1377.14c24.21-30.21,38.7-68.55,38.7-110.28,0-97.49-79.03-176.52-176.52-176.52s-176.52,79.03-176.52,176.52,79.03,176.52,176.52,176.52c27.73,0,53.97-6.4,77.32-17.8l46.76,16.91c10.18,3.68,20.69-4.62,19.46-15.38l-5.71-49.97Z" style="fill:#005ba5; stroke-width:0px;"/><text transform="translate(2126.05 1260.43) scale(1.02 1)" style="fill:#fff; font-family:TTNorms-ExtraBold, &apos;TT Norms&apos;; font-size:112.56px; font-weight:700; letter-spacing:-.03em;"><tspan x="0" y="0">ASK</tspan></text><text transform="translate(2117.34 1352.17) scale(1.02 1)" style="fill:#fff; font-family:TTNorms-ExtraBold, &apos;TT Norms&apos;; font-size:112.56px; font-weight:700; letter-spacing:-.03em;"><tspan x="0" y="0">GBC</tspan></text><path d="M1612.45,1374.46c26.38-28.54,42.5-66.69,42.5-108.61,0-88.41-71.67-160.07-160.07-160.07s-160.07,71.67-160.07,160.07,71.67,160.07,160.07,160.07c25.71,0,50-6.07,71.53-16.85l52.15,18.86-6.11-53.47Z" style="fill:#005ba5; stroke-width:0px;"/><path d="M1392.66,927.87l-5.77,17.05h-23.66l30.58-79.57h24.23l30.58,79.57h-23.66l-5.77-17.05h-26.54ZM1405.93,887.52l-7.5,23.3h15l-7.5-23.3Z" style="fill:#005ba5; stroke-width:0px;"/><path d="M1450.36,887.52c0-12.5,12.12-24.44,30.58-24.44,19.62,0,28.27,11.37,28.27,11.37l-12.69,13.07s-5.31-6.25-13.27-6.25c-5.19,0-8.66,3.41-8.66,6.82,0,10.8,37.51,5.12,37.51,32.97,0,14.21-12.12,26.15-32.31,26.15-21.35,0-32.31-13.64-32.31-13.64l12.69-13.07s6.92,8.53,17.31,8.53c6.35,0,10.39-3.98,10.39-8.53,0-10.8-37.51-5.12-37.51-32.97Z" style="fill:#005ba5; stroke-width:0px;"/><path d="M1543.25,924.46v20.46h-21.93v-79.57h21.93v30.69l26.54-30.69h25.39l-28.85,32.97,31.16,46.61h-25.39l-20.2-30.12-8.66,9.66Z" style="fill:#005ba5; stroke-width:0px;"/><path d="M1359.05,997.78c0-22.74,19.62-42.06,45.01-42.06,23.08,0,34.04,15.92,34.04,15.92l-13.27,13.64s-7.5-10.23-20.77-10.23-23.08,9.66-23.08,22.74,9.81,22.74,23.08,22.74c9.23,0,13.85-5.12,13.85-5.12v-8.53h-12.69v-13.64h34.62v30.69s-12.69,15.92-35.77,15.92c-25.39,0-45.01-19.33-45.01-42.06Z" style="fill:#005ba5; stroke-width:0px;"/><path d="M1453.68,1037.57v-79.57h36.35c17.31,0,27.7,10.23,27.7,21.03,0,11.94-10.39,16.48-10.39,16.48,0,0,14.42,4.55,14.42,18.76,0,11.94-11.54,23.3-29.43,23.3h-38.66ZM1475.61,975.05v13.64h12.12c4.73,0,7.5-2.84,7.5-6.82s-2.89-6.82-7.5-6.82h-12.12ZM1490.61,1020.52c5.19,0,8.66-3.41,8.66-7.96s-3.46-7.96-8.66-7.96h-15v15.92h15Z" style="fill:#005ba5; stroke-width:0px;"/><path d="M1572.54,1020.52c13.85,0,21.93-10.23,21.93-10.23l12.69,13.64s-10.96,15.92-34.62,15.92c-25.39,0-45.01-19.33-45.01-42.06s19.62-42.06,45.01-42.06c23.08,0,34.04,15.92,34.04,15.92l-13.27,13.64s-7.5-10.23-20.77-10.23-23.08,9.66-23.08,22.74,9.81,22.74,23.08,22.74Z" style="fill:#005ba5; stroke-width:0px;"/><path d="M1413.5,578.58l-5.77,17.05h-23.66l30.58-79.57h24.23l30.58,79.57h-23.66l-5.77-17.05h-26.54ZM1426.78,538.23l-7.5,23.3h15l-7.5-23.3Z" style="fill:#005ba5; stroke-width:0px;"/><path d="M1471.2,538.23c0-12.5,12.12-24.44,30.58-24.44,19.62,0,28.27,11.37,28.27,11.37l-12.69,13.07s-5.31-6.25-13.27-6.25c-5.19,0-8.66,3.41-8.66,6.82,0,10.8,37.51,5.12,37.51,32.97,0,14.21-12.12,26.15-32.31,26.15-21.35,0-32.31-13.64-32.31-13.64l12.69-13.07s6.92,8.53,17.31,8.53c6.35,0,10.39-3.98,10.39-8.53,0-10.8-37.51-5.12-37.51-32.97Z" style="fill:#005ba5; stroke-width:0px;"/><path d="M1564.1,575.17v20.46h-21.93v-79.57h21.93v30.69l26.54-30.69h25.39l-28.85,32.97,31.16,46.61h-25.39l-20.2-30.12-8.66,9.66Z" style="fill:#005ba5; stroke-width:0px;"/><path d="M1379.9,648.5c0-22.74,19.62-42.06,45.01-42.06,23.08,0,34.04,15.92,34.04,15.92l-13.27,13.64s-7.5-10.23-20.77-10.23-23.08,9.66-23.08,22.74,9.81,22.74,23.08,22.74c9.23,0,13.85-5.12,13.85-5.12v-8.53h-12.69v-13.64h34.62v30.69s-12.69,15.92-35.77,15.92c-25.39,0-45.01-19.33-45.01-42.06Z" style="fill:#005ba5; stroke-width:0px;"/><path d="M1474.52,688.28v-79.57h36.35c17.31,0,27.7,10.23,27.7,21.03,0,11.94-10.39,16.48-10.39,16.48,0,0,14.42,4.55,14.42,18.76,0,11.94-11.54,23.3-29.43,23.3h-38.66ZM1496.45,625.76v13.64h12.12c4.73,0,7.5-2.84,7.5-6.82s-2.89-6.82-7.5-6.82h-12.12ZM1511.45,671.23c5.19,0,8.66-3.41,8.66-7.96s-3.46-7.96-8.66-7.96h-15v15.92h15Z" style="fill:#005ba5; stroke-width:0px;"/><text transform="translate(968.5 1240.26) scale(1.02 1)" style="fill:#005ba5; font-family:TTNorms-ExtraBold, &apos;TT Norms&apos;; font-size:113.68px; font-weight:700; letter-spacing:-.03em;"><tspan x="0" y="0">G</tspan></text><path d="M886.35,1321.63c0-22.74,19.62-42.06,45.01-42.06,23.08,0,34.04,15.92,34.04,15.92l-13.27,13.64s-7.5-10.23-20.77-10.23-23.08,9.66-23.08,22.74,9.81,22.74,23.08,22.74c9.23,0,13.85-5.12,13.85-5.12v-8.53h-12.69v-13.64h34.62v30.69s-12.69,15.92-35.77,15.92c-25.39,0-45.01-19.33-45.01-42.06Z" style="fill:#005ba5; stroke-width:0px;"/><text transform="translate(1094.64 1240.26) scale(1.02 1)" style="fill:#005ba5; font-family:TTNorms-ExtraBold, &apos;TT Norms&apos;; font-size:113.68px; font-weight:700; letter-spacing:-.03em;"><tspan x="0" y="0">g</tspan></text><path d="M746.66,1407.23c-53.88,0-97.71-43.83-97.71-97.71s43.83-97.71,97.71-97.71c29.24,0,56.7,12.93,75.34,35.49l-30.83,25.49c-11.02-13.33-27.24-20.97-44.51-20.97-31.82,0-57.71,25.89-57.71,57.71s25.89,57.71,57.71,57.71c16.28,0,30.91-5.37,41.18-15.12,6.4-6.08,11.02-13.72,13.72-22.59h-43.31v-40h86.12v20c0,28.84-10.03,53.6-28.99,71.6-17.74,16.83-42.14,26.11-68.72,26.11Z" style="fill:#005ba5; stroke-width:0px;"/><path d="M1144.29,1298.58c-14.25-17.24-35.81-28.23-59.92-28.23-42.92,0-77.71,34.79-77.71,77.71s34.79,77.71,77.71,77.71,77.71-29.06,77.71-77.71h-77.71" style="fill:none; stroke:#005ba5; stroke-miterlimit:10; stroke-width:40px;"/><polygon points="967.13 1362.21 967.13 1351.1 956.01 1362.21 967.13 1362.21" style="fill:#005ba5; stroke-width:0px;"/><polygon points="844.37 1398.89 844.37 1290.94 791.6 1359.43 827.31 1398.89 844.37 1398.89" style="fill:#005ba5; stroke-width:0px;"/><path d="M794.96,1279.87h48.32s-9.09-23.92-33.29-44.76l-24.71,31.53s7.59,7.29,9.68,13.24Z" style="fill:#005ba5; stroke-width:0px;"/><rect x="781.92" y="1273.06" width="68.42" height="12.61" style="fill:#fff; stroke-width:0px;"/><path d="M138.89,1323.07l43.31,29.74c-2.7,8.88-7.31,16.52-13.72,22.59-10.27,9.75-24.9,15.12-41.18,15.12-31.82,0-57.71-25.89-57.71-57.71s25.89-57.71,57.71-57.71,42.15,18.41,44.31,21.25h49.14c-4.11-7.94-26.86-61.25-93.45-61.25-53.88,0-97.71,43.83-97.71,97.71s43.83,97.71,97.71,97.71c25.46,0,48.91-8.53,66.43-24.05l19.32,15.71h11.95v-109.37h-86.12v10.26Z" style="fill:#005ba5; stroke-width:0px;"/><circle cx="434.95" cy="1258.75" r="119.31" transform="translate(-762.68 676.24) rotate(-45)" style="fill:#005ba5; stroke-width:0px;"/><circle cx="434.95" cy="1258.75" r="76.02" transform="translate(-762.68 676.24) rotate(-45)" style="fill:#fff; stroke-width:0px;"/><polygon points="545.58 1235.74 545.58 1281.76 448.55 1281.76 434.95 1258.75 448.55 1235.74 545.58 1235.74" style="fill:#005ba5; stroke-width:0px;"/><polygon points="595.39 1235.74 476.37 1235.74 476.37 1219.56 595.39 1169.11 595.39 1235.74" style="fill:#fff; stroke-width:0px;"/><circle cx="1589.97" cy="647.85" r="41.46" style="fill:#005ba5; stroke-width:0px;"/><circle cx="1589.97" cy="647.85" r="22.87" style="fill:#fff; stroke-width:0px;"/><circle cx="1561.77" cy="997.78" r="3.63" style="fill:#005ba5; stroke-width:0px;"/><circle cx="1573.42" cy="997.78" r="3.63" style="fill:#005ba5; stroke-width:0px;"/><circle cx="1585.06" cy="997.78" r="3.63" style="fill:#005ba5; stroke-width:0px;"/><path d="M1410.88,1184.94l-28.77,74.86h22.25l5.43-16.04h24.97l5.43,16.04h22.25l-28.77-74.86h-22.8ZM1415.22,1227.71l7.06-21.92,7.06,21.92h-14.11Z" style="fill:#fff; stroke-width:0px;"/><path d="M1489.58,1244.82c-9.77,0-16.28-8.02-16.28-8.02l-11.94,12.3s10.31,12.83,30.4,12.83c19,0,30.4-11.23,30.4-24.6,0-26.2-35.28-20.85-35.28-31.01,0-3.21,3.26-6.42,8.14-6.42,7.49,0,12.48,5.88,12.48,5.88l11.94-12.3s-8.14-10.69-26.6-10.69c-17.37,0-28.77,11.23-28.77,22.99,0,26.2,35.28,20.85,35.28,31.01,0,4.28-3.8,8.02-9.77,8.02Z" style="fill:#fff; stroke-width:0px;"/><polygon points="1551.46 1240.55 1559.6 1231.46 1578.6 1259.79 1602.48 1259.79 1573.17 1215.95 1600.31 1184.94 1576.43 1184.94 1551.46 1213.81 1551.46 1184.94 1530.83 1184.94 1530.83 1259.79 1551.46 1259.79 1551.46 1240.55" style="fill:#fff; stroke-width:0px;"/><path d="M1421.6,1318.08h11.94v8.02s-4.34,4.81-13.03,4.81c-12.48,0-21.71-9.09-21.71-21.39s9.23-21.39,21.71-21.39,19.54,9.62,19.54,9.62l12.48-12.83s-10.31-14.97-32.03-14.97c-23.88,0-42.34,18.18-42.34,39.57s18.46,39.57,42.34,39.57c21.71,0,33.65-14.97,33.65-14.97v-28.87h-32.57v12.83Z" style="fill:#fff; stroke-width:0px;"/><path d="M1517.67,1307.38s9.77-4.28,9.77-15.51c0-10.16-9.77-19.78-26.05-19.78h-34.2v74.86h36.37c16.83,0,27.68-10.69,27.68-21.92,0-13.37-13.57-17.64-13.57-17.64ZM1487.82,1288.13h11.4c4.34,0,7.06,2.67,7.06,6.42s-2.61,6.42-7.06,6.42h-11.4v-12.83ZM1501.93,1330.91h-14.11v-14.97h14.11c4.88,0,8.14,3.21,8.14,7.49s-3.26,7.49-8.14,7.49Z" style="fill:#fff; stroke-width:0px;"/><path d="M1599.64,1321.29s-7.6,9.62-20.63,9.62-21.71-9.09-21.71-21.39,9.23-21.39,21.71-21.39,19.54,9.62,19.54,9.62l12.48-12.83s-10.31-14.97-32.03-14.97c-23.88,0-42.34,18.18-42.34,39.57s18.46,39.57,42.34,39.57c22.25,0,32.57-14.97,32.57-14.97l-11.94-12.83Z" style="fill:#fff; stroke-width:0px;"/><circle cx="1475.21" cy="1372.66" r="7.11" style="fill:#fff; stroke-width:0px;"/><circle cx="1498.01" cy="1372.66" r="7.11" style="fill:#fff; stroke-width:0px;"/><circle cx="1520.81" cy="1372.66" r="7.11" style="fill:#fff; stroke-width:0px;"/><circle cx="1475.21" cy="1159.23" r="7.11" style="fill:#fff; stroke-width:0px;"/><circle cx="1498.01" cy="1159.23" r="7.11" style="fill:#fff; stroke-width:0px;"/><circle cx="1520.81" cy="1159.23" r="7.11" style="fill:#fff; stroke-width:0px;"/><circle cx="2027.62" cy="403.19" r="70.18" style="fill:#f78234; stroke-width:0px;"/><circle cx="2205.42" cy="403.19" r="70.18" style="fill:#7482c0; stroke-width:0px;"/><circle cx="2381.44" cy="403.19" r="70.18" style="fill:#06b03f; stroke-width:0px;"/><circle cx="1315.76" cy="168.71" r="80.04" style="fill:#005ba5; stroke-width:0px;"/><circle cx="1518.54" cy="168.71" r="80.04" style="fill:#005ba5; stroke-width:0px;"/><circle cx="1719.29" cy="168.71" r="80.04" style="fill:#005ba5; stroke-width:0px;"/><circle cx="1315.76" cy="371.5" r="80.04" style="fill:#005ba5; stroke-width:0px;"/><circle cx="1518.54" cy="371.5" r="80.04" style="fill:#005ba5; stroke-width:0px;"/><circle cx="1719.29" cy="371.5" r="80.04" style="fill:#005ba5; stroke-width:0px;"/><path d="M2014.69,425.33l-5.62,16.61h-23.04l29.79-77.51h23.61l29.79,77.51h-23.04l-5.62-16.61h-25.85ZM2027.62,386.02l-7.31,22.7h14.61l-7.31-22.7Z" style="fill:#fff; stroke-width:0px;"/><path d="M2175.87,386.03c0-12.18,11.8-23.81,29.79-23.81,19.11,0,27.54,11.07,27.54,11.07l-12.36,12.73s-5.17-6.09-12.93-6.09c-5.06,0-8.43,3.32-8.43,6.64,0,10.52,36.53,4.98,36.53,32.11,0,13.84-11.8,25.47-31.47,25.47-20.8,0-31.47-13.29-31.47-13.29l12.36-12.73s6.75,8.3,16.86,8.3c6.18,0,10.12-3.88,10.12-8.3,0-10.52-36.53-4.98-36.53-32.11Z" style="fill:#fff; stroke-width:0px;"/><path d="M2370.95,422.01v19.93h-21.36v-77.51h21.36v29.9l25.85-29.9h24.73l-28.1,32.11,30.35,45.4h-24.73l-19.67-29.34-8.43,9.41Z" style="fill:#fff; stroke-width:0px;"/><path d="M1964.34,237.47c0-31.5,27.18-58.28,62.36-58.28,31.98,0,47.17,22.05,47.17,22.05l-18.39,18.9s-10.39-14.18-28.78-14.18-31.98,13.39-31.98,31.5,13.59,31.5,31.98,31.5c12.79,0,19.19-7.09,19.19-7.09v-11.81h-17.59v-18.9h47.97v42.53s-17.59,22.05-49.57,22.05c-35.18,0-62.36-26.78-62.36-58.28Z" style="fill:#005ba5; stroke-width:0px;"/><path d="M2159.71,292.6v-110.26h50.37c23.99,0,38.38,14.18,38.38,29.14,0,16.54-14.39,22.84-14.39,22.84,0,0,19.99,6.3,19.99,25.99,0,16.54-15.99,32.29-40.78,32.29h-53.57ZM2190.09,205.96v18.9h16.79c6.56,0,10.4-3.94,10.4-9.45s-4-9.45-10.4-9.45h-16.79ZM2210.88,268.97c7.19,0,11.99-4.73,11.99-11.03s-4.8-11.03-11.99-11.03h-20.79v22.05h20.79Z" style="fill:#005ba5; stroke-width:0px;"/><path d="M2383.18,268.97c19.19,0,30.38-14.18,30.38-14.18l17.59,18.9s-15.19,22.05-47.97,22.05c-35.18,0-62.36-26.78-62.36-58.28s27.18-58.28,62.36-58.28c31.98,0,47.17,22.05,47.17,22.05l-18.39,18.9s-10.39-14.18-28.78-14.18-31.98,13.39-31.98,31.5,13.59,31.5,31.98,31.5Z" style="fill:#005ba5; stroke-width:0px;"/><circle cx="2035.34" cy="800.33" r="77.9" style="fill:#f78234; stroke-width:0px;"/><circle cx="2206.07" cy="800.33" r="77.9" style="fill:#7482c0; stroke-width:0px;"/><circle cx="2373.72" cy="800.33" r="77.9" style="fill:#06b03f; stroke-width:0px;"/><path d="M2013.79,664.85l-9.37,27.7h-38.42l49.67-129.25h39.36l49.67,129.25h-38.42l-9.37-27.7h-43.11ZM2035.34,599.31l-12.18,37.85h24.37l-12.18-37.85Z" style="fill:#005ba5; stroke-width:0px;"/><path d="M2156.93,599.31c0-20.31,19.68-39.7,49.67-39.7,31.87,0,45.92,18.46,45.92,18.46l-20.62,21.23s-8.62-10.15-21.55-10.15c-8.44,0-14.06,5.54-14.06,11.08,0,17.54,60.92,8.31,60.92,53.55,0,23.08-19.68,42.47-52.48,42.47-34.68,0-52.48-22.16-52.48-22.16l20.62-21.23s11.25,13.85,28.12,13.85c10.31,0,16.87-6.46,16.87-13.85,0-17.54-60.92-8.31-60.92-53.55Z" style="fill:#005ba5; stroke-width:0px;"/><path d="M2347.48,659.31v33.23h-35.61v-129.25h35.61v49.85l43.11-49.85h41.24l-46.86,53.54,50.61,75.7h-41.24l-32.8-48.93-14.06,15.69Z" style="fill:#005ba5; stroke-width:0px;"/><path d="M1979.56,800.33c0-28.68,24.75-53.05,56.77-53.05,29.11,0,42.94,20.07,42.94,20.07l-16.74,17.21s-9.46-12.9-26.2-12.9-29.11,12.19-29.11,28.68,12.37,28.68,29.11,28.68c11.65,0,17.47-6.45,17.47-6.45v-10.75h-16.01v-17.21h43.67v38.71s-16.01,20.07-45.12,20.07c-32.02,0-56.77-24.38-56.77-53.05Z" style="fill:#fff; stroke-width:0px;"/><path d="M2166.84,850.51v-100.37h45.85c21.83,0,34.93,12.9,34.93,26.53,0,15.05-13.1,20.79-13.1,20.79,0,0,18.19,5.74,18.19,23.66,0,15.05-14.56,29.39-37.12,29.39h-48.76ZM2194.5,771.65v17.21h15.28c5.97,0,9.46-3.58,9.46-8.6s-3.64-8.6-9.46-8.6h-15.28ZM2213.42,829c6.55,0,10.92-4.3,10.92-10.04s-4.37-10.04-10.92-10.04h-18.92v20.07h18.92Z" style="fill:#fff; stroke-width:0px;"/><path d="M2377.05,829c17.47,0,27.66-12.9,27.66-12.9l16.01,17.21s-13.83,20.07-43.67,20.07c-32.02,0-56.77-24.38-56.77-53.05s24.75-53.05,56.77-53.05c29.11,0,42.94,20.07,42.94,20.07l-16.74,17.21s-9.46-12.9-26.2-12.9-29.11,12.19-29.11,28.68,12.37,28.68,29.11,28.68Z" style="fill:#fff; stroke-width:0px;"/><path d="M1976.45,1136.09h-219.22c-20.87,0-37.94,17.07-37.94,37.94v177.37c0,20.87,17.07,37.94,37.94,37.94h178.12l59.97,42.63c7.99,5.68,19.07-.03,19.07-9.84v-248.09c0-20.87-17.07-37.94-37.94-37.94Z" style="fill:#005ba5; stroke-width:0px;"/><text transform="translate(1747.66 1256.02) scale(1.02 1)" style="fill:#fff; font-family:TTNorms-ExtraBold, &apos;TT Norms&apos;; font-size:114.13px; font-weight:700; letter-spacing:-.03em;"><tspan x="0" y="0">ASK</tspan></text><text transform="translate(1738.83 1349.03) scale(1.02 1)" style="fill:#fff; font-family:TTNorms-ExtraBold, &apos;TT Norms&apos;; font-size:114.13px; font-weight:700; letter-spacing:-.03em;"><tspan x="0" y="0">GBC</tspan></text><path d="M2984.48,905.06h12.57v8.44s-4.57,5.07-13.71,5.07c-13.14,0-22.85-9.57-22.85-22.51s9.71-22.51,22.85-22.51,20.57,10.13,20.57,10.13l13.14-13.51s-10.85-15.76-33.71-15.76c-25.14,0-44.56,19.14-44.56,41.65s19.42,41.65,44.56,41.65c22.85,0,35.42-15.76,35.42-15.76v-30.39h-34.28v13.51ZM3056.03,827.96c-10.28,0-17.14-8.44-17.14-8.44l-12.57,12.94s10.85,13.51,31.99,13.51c20,0,31.99-11.82,31.99-25.89,0-27.58-37.13-21.95-37.13-32.64,0-3.38,3.43-6.75,8.57-6.75,7.88,0,13.14,6.19,13.14,6.19l12.57-12.95s-8.57-11.26-27.99-11.26c-18.28,0-30.28,11.82-30.28,24.2,0,27.58,37.13,21.95,37.13,32.64,0,4.5-4,8.44-10.28,8.44ZM3121.15,823.46l8.57-9.57,20,29.83h25.14l-30.85-46.15,28.56-32.64h-25.14l-26.28,30.39v-30.39h-21.71v78.79h21.71v-20.26ZM3171.86,908.44s-8,10.13-21.71,10.13-22.85-9.57-22.85-22.51,9.71-22.51,22.85-22.51,20.57,10.13,20.57,10.13l13.14-13.51s-10.85-15.76-33.71-15.76c-25.14,0-44.56,19.14-44.56,41.65s19.42,41.65,44.56,41.65c23.42,0,34.28-15.76,34.28-15.76l-12.57-13.51ZM2973.19,764.93l-30.28,78.79h23.42l5.71-16.88h26.28l5.71,16.88h23.42l-30.28-78.79h-23.99ZM2977.76,809.95l7.43-23.08,7.43,23.08h-14.85ZM3085.6,893.81s10.28-4.5,10.28-16.32c0-10.69-10.28-20.82-27.42-20.82h-35.99v78.79h38.28c17.71,0,29.14-11.26,29.14-23.08,0-14.07-14.28-18.57-14.28-18.57ZM3054.18,873.55h12c4.57,0,7.43,2.81,7.43,6.75s-2.74,6.75-7.43,6.75h-12v-13.51ZM3069.03,918.57h-14.85v-15.76h14.85c5.14,0,8.57,3.38,8.57,7.88s-3.43,7.88-8.57,7.88Z" style="fill:#fff; stroke-width:0px;"/><path d="M3508.08,518.12c27.67-27.44,44.21-62.19,44.21-99.99,0-88.74-91.09-160.67-203.46-160.67s-203.46,71.93-203.46,160.67,91.09,160.67,203.46,160.67c34.5,0,66.99-6.79,95.46-18.76l49.41,17.87c10.18,3.68,20.69-4.62,19.46-15.38l-5.08-44.41Z" style="fill:#70d1f6; stroke-width:0px;"/><path d="M3445.31,560.03c22.02-27.48,35.19-62.35,35.19-100.3,0-88.66-71.88-160.54-160.54-160.54s-160.54,71.88-160.54,160.54,71.88,160.54,160.54,160.54c25.22,0,49.08-5.82,70.32-16.19l42.52,15.38c9.26,3.35,18.82-4.2,17.7-13.99l-5.19-45.45Z" style="fill:#9fcf67; mix-blend-mode:multiply; stroke-width:0px;"/><path d="M3531.89,249.02h-219.22c-20.87,0-37.94,17.07-37.94,37.94v177.37c0,20.87,17.07,37.94,37.94,37.94h178.12l59.97,42.63c7.99,5.68,19.07-.03,19.07-9.84v-248.09c0-20.87-17.07-37.94-37.94-37.94Z" style="fill:#ffd204; mix-blend-mode:multiply; stroke-width:0px;"/><path d="M3265.49,480.18h14.27v9.58s-5.19,5.75-15.56,5.75c-14.92,0-25.94-10.86-25.94-25.56s11.03-25.56,25.94-25.56,23.35,11.5,23.35,11.5l14.92-15.33s-12.32-17.89-38.26-17.89c-28.54,0-50.59,21.72-50.59,47.28s22.05,47.28,50.59,47.28c25.94,0,40.21-17.89,40.21-17.89v-34.5h-38.91v15.33ZM3346.71,392.65c-11.67,0-19.46-9.58-19.46-9.58l-14.27,14.69s12.32,15.33,36.32,15.33c22.7,0,36.32-13.42,36.32-29.39,0-31.31-42.15-24.92-42.15-37.06,0-3.83,3.89-7.67,9.73-7.67,8.95,0,14.92,7.03,14.92,7.03l14.27-14.7s-9.73-12.78-31.78-12.78c-20.75,0-34.37,13.42-34.37,27.47,0,31.31,42.15,24.92,42.15,37.06,0,5.11-4.54,9.58-11.67,9.58ZM3420.65,387.54l9.73-10.86,22.7,33.86h28.54l-35.02-52.39,32.43-37.06h-28.54l-29.83,34.5v-34.5h-24.64v89.45h24.64v-23ZM3478.21,484.01s-9.08,11.5-24.64,11.5-25.94-10.86-25.94-25.56,11.03-25.56,25.94-25.56,23.35,11.5,23.35,11.5l14.92-15.33s-12.32-17.89-38.26-17.89c-28.54,0-50.59,21.72-50.59,47.28s22.05,47.28,50.59,47.28c26.59,0,38.91-17.89,38.91-17.89l-14.27-15.33ZM3252.67,321.09l-34.37,89.45h26.59l6.49-19.17h29.83l6.49,19.17h26.59l-34.37-89.45h-27.24ZM3257.86,372.2l8.43-26.2,8.43,26.2h-16.86ZM3380.28,467.4s11.67-5.11,11.67-18.53c0-12.14-11.67-23.64-31.13-23.64h-40.86v89.45h43.45c20.1,0,33.08-12.78,33.08-26.2,0-15.97-16.21-21.08-16.21-21.08ZM3344.61,444.4h13.62c5.19,0,8.43,3.2,8.43,7.67s-3.11,7.67-8.43,7.67h-13.62v-15.33ZM3361.47,495.51h-16.86v-17.89h16.86c5.84,0,9.73,3.83,9.73,8.95s-3.89,8.94-9.73,8.94Z" style="fill:#fff; stroke-width:0px;"/><path d="M3177.59,1136.09h-219.22c-20.87,0-37.94,17.07-37.94,37.94v177.37c0,20.87,17.07,37.94,37.94,37.94h178.12l59.97,42.63c7.99,5.68,19.07-.03,19.07-9.84v-248.09c0-20.87-17.07-37.94-37.94-37.94Z" style="fill:#005ba5; stroke-width:0px;"/><path d="M2978.33,1238.9l-5.79,17.12h-23.75l30.7-79.88h24.33l30.7,79.88h-23.75l-5.79-17.12h-26.64ZM2991.65,1198.39l-7.53,23.39h15.06l-7.53-23.39Z" style="fill:#fff; stroke-width:0px;"/><path d="M3036.26,1198.39c0-12.55,12.16-24.54,30.7-24.54,19.69,0,28.38,11.41,28.38,11.41l-12.74,13.12s-5.33-6.28-13.32-6.28c-5.21,0-8.69,3.42-8.69,6.85,0,10.84,37.65,5.14,37.65,33.1,0,14.26-12.16,26.25-32.44,26.25-21.43,0-32.44-13.69-32.44-13.69l12.74-13.12s6.95,8.56,17.38,8.56c6.37,0,10.43-3.99,10.43-8.56,0-10.84-37.65-5.13-37.65-33.09Z" style="fill:#fff; stroke-width:0px;"/><path d="M3129.51,1235.48v20.54h-22.01v-79.88h22.01v30.81l26.64-30.81h25.49l-28.96,33.1,31.28,46.79h-25.49l-20.27-30.24-8.69,9.7Z" style="fill:#fff; stroke-width:0px;"/><path d="M2944.59,1309.09c0-22.82,19.69-42.22,45.18-42.22,23.17,0,34.17,15.98,34.17,15.98l-13.32,13.69s-7.53-10.27-20.85-10.27-23.17,9.7-23.17,22.82,9.85,22.82,23.17,22.82c9.27,0,13.9-5.14,13.9-5.14v-8.56h-12.74v-13.69h34.75v30.81s-12.74,15.98-35.91,15.98c-25.49,0-45.18-19.4-45.18-42.22Z" style="fill:#fff; stroke-width:0px;"/><path d="M3039.59,1349.03v-79.88h36.49c17.38,0,27.8,10.27,27.8,21.11,0,11.98-10.43,16.55-10.43,16.55,0,0,14.48,4.56,14.48,18.83,0,11.98-11.58,23.39-29.54,23.39h-38.81ZM3061.6,1286.27v13.69h12.16c4.75,0,7.53-2.85,7.53-6.85s-2.9-6.85-7.53-6.85h-12.16ZM3076.66,1331.91c5.21,0,8.69-3.42,8.69-7.99s-3.48-7.99-8.69-7.99h-15.06v15.98h15.06Z" style="fill:#fff; stroke-width:0px;"/><path d="M3158.92,1331.91c13.9,0,22.01-10.27,22.01-10.27l12.74,13.69s-11,15.98-34.75,15.98c-25.49,0-45.18-19.4-45.18-42.22s19.69-42.22,45.18-42.22c23.17,0,34.17,15.98,34.17,15.98l-13.32,13.69s-7.53-10.27-20.85-10.27-23.17,9.7-23.17,22.82,9.85,22.82,23.17,22.82Z" style="fill:#fff; stroke-width:0px;"/><path d="M1196.02,1042.89l56,20.25c10.18,3.68,20.69-4.62,19.46-15.38l-9.68-84.67-65.78,79.8Z" style="fill:#005ba5; stroke-width:0px;"/><circle cx="1127.95" cy="887.52" r="176.52" style="fill:#005ba5; stroke-width:0px;"/><text transform="translate(1009.25 881.09) scale(1.02 1)" style="fill:#fff; font-family:TTNorms-ExtraBold, &apos;TT Norms&apos;; font-size:112.56px; font-weight:700; letter-spacing:-.03em;"><tspan x="0" y="0">ASK</tspan></text><text transform="translate(1000.54 972.83) scale(1.02 1)" style="fill:#fff; font-family:TTNorms-ExtraBold, &apos;TT Norms&apos;; font-size:112.56px; font-weight:700; letter-spacing:-.03em;"><tspan x="0" y="0">GBC</tspan></text><path d="M787.62,988.01l90.9,64.61c7.99,5.68,19.07-.03,19.07-9.84v-89.11l-109.97,34.34Z" style="fill:#005ba5; stroke-width:0px;"/><rect x="602.49" y="756.75" width="295.1" height="253.25" rx="37.94" ry="37.94" style="fill:#005ba5; stroke-width:0px;"/><text transform="translate(630.86 876.68) scale(1.02 1)" style="fill:#fff; font-family:TTNorms-ExtraBold, &apos;TT Norms&apos;; font-size:114.13px; font-weight:700; letter-spacing:-.03em;"><tspan x="0" y="0">ASK</tspan></text><text transform="translate(622.03 969.69) scale(1.02 1)" style="fill:#fff; font-family:TTNorms-ExtraBold, &apos;TT Norms&apos;; font-size:114.13px; font-weight:700; letter-spacing:-.03em;"><tspan x="0" y="0">GBC</tspan></text></g></g></svg>