<?xml version="1.0" encoding="UTF-8"?><svg id="Layer_1" xmlns="http://www.w3.org/2000/svg" viewBox="0 0 353.04 353.04"><rect x="0" width="353.04" height="353.04" style="fill:#005ba5; stroke-width:0px;"/><path d="M64.14,198.8l16.24-44.06h5.6l16.18,44.06h-5.6l-13.41-37.45-13.47,37.45h-5.54ZM71.57,187.47l1.51-4.28h19.95l1.51,4.28h-22.97Z" style="fill:#fff; stroke-width:0px;"/><path d="M119.15,199.56c-2.64,0-4.94-.44-6.89-1.32s-3.5-2.11-4.66-3.68c-1.15-1.57-1.86-3.43-2.11-5.57h5.41c.21,1.09.65,2.1,1.32,3.02.67.92,1.58,1.67,2.74,2.23,1.15.57,2.57.85,4.25.85,1.47,0,2.68-.22,3.65-.66.96-.44,1.69-1.04,2.17-1.79.48-.75.72-1.57.72-2.45,0-1.3-.3-2.29-.91-2.96-.61-.67-1.5-1.21-2.67-1.6-1.18-.4-2.6-.74-4.28-1.04-1.38-.25-2.75-.59-4.09-1.01-1.34-.42-2.54-.98-3.59-1.67-1.05-.69-1.88-1.54-2.49-2.55s-.91-2.24-.91-3.71c0-1.8.46-3.41,1.38-4.81.92-1.41,2.26-2.51,4-3.3,1.74-.8,3.77-1.2,6.07-1.2,3.4,0,6.15.82,8.25,2.45,2.1,1.64,3.34,4.01,3.71,7.11h-5.22c-.21-1.59-.89-2.84-2.05-3.74-1.15-.9-2.74-1.35-4.75-1.35s-3.47.4-4.5,1.2c-1.03.8-1.54,1.85-1.54,3.15,0,.84.28,1.58.85,2.24.57.65,1.41,1.21,2.52,1.67,1.11.46,2.49.84,4.12,1.13,2.1.38,4.01.88,5.73,1.51,1.72.63,3.11,1.56,4.19,2.8,1.07,1.24,1.6,2.99,1.6,5.26,0,1.97-.49,3.69-1.48,5.16-.99,1.47-2.38,2.61-4.19,3.43-1.8.82-3.92,1.23-6.36,1.23Z" style="fill:#fff; stroke-width:0px;"/><path d="M137.53,198.8v-45.32h5.29v45.32h-5.29ZM157.04,198.8l-15.11-17.37,13.78-14.35h6.48l-15.8,16.24.06-3.78,17.31,19.26h-6.73Z" style="fill:#fff; stroke-width:0px;"/><path d="M187.25,199.56c-4.11,0-7.72-.95-10.83-2.86-3.11-1.91-5.52-4.56-7.24-7.96-1.72-3.4-2.58-7.36-2.58-11.9s.87-8.46,2.61-11.9c1.74-3.44,4.22-6.13,7.43-8.06,3.21-1.93,7-2.9,11.36-2.9,4.95,0,9.08,1.19,12.4,3.56,3.31,2.37,5.43,5.68,6.36,9.91h-6.1c-.59-2.64-1.97-4.74-4.15-6.29-2.18-1.55-5.01-2.33-8.5-2.33-3.23,0-6.05.72-8.47,2.17-2.41,1.45-4.27,3.51-5.57,6.2-1.3,2.69-1.95,5.9-1.95,9.63s.65,6.95,1.95,9.66c1.3,2.71,3.11,4.77,5.44,6.2,2.33,1.43,5,2.14,8.02,2.14,4.7,0,8.25-1.38,10.64-4.15,2.39-2.77,3.75-6.52,4.09-11.27h-12.71v-4.15h18.13v23.54h-4.85l-.44-7.24c-1.05,1.72-2.26,3.18-3.62,4.37-1.36,1.2-2.97,2.1-4.81,2.71-1.85.61-4.05.91-6.61.91Z" style="fill:#fff; stroke-width:0px;"/><path d="M214.76,198.8v-44.06h15.48c3.11,0,5.67.49,7.71,1.48,2.03.99,3.56,2.33,4.56,4.03,1.01,1.7,1.51,3.6,1.51,5.7,0,2.27-.49,4.15-1.48,5.66-.99,1.51-2.27,2.67-3.84,3.46-1.57.8-3.24,1.28-5,1.45l.88-.63c1.89.04,3.63.55,5.22,1.51,1.59.97,2.86,2.27,3.81,3.9.94,1.64,1.42,3.46,1.42,5.48,0,2.22-.55,4.25-1.64,6.07-1.09,1.82-2.7,3.27-4.81,4.34-2.12,1.07-4.73,1.6-7.84,1.6h-15.99ZM220.04,174h9.82c2.85,0,5.02-.67,6.51-2.01,1.49-1.34,2.23-3.17,2.23-5.48s-.75-4.01-2.23-5.35c-1.49-1.34-3.72-2.01-6.7-2.01h-9.63v14.85ZM220.04,194.4h10.13c2.98,0,5.3-.7,6.95-2.11,1.66-1.41,2.49-3.37,2.49-5.88s-.85-4.46-2.55-5.95c-1.7-1.49-4.04-2.23-7.02-2.23h-10.01v16.18Z" style="fill:#fff; stroke-width:0px;"/><path d="M270.58,199.56c-4.28,0-7.98-.95-11.11-2.86-3.13-1.91-5.53-4.57-7.21-7.99-1.68-3.42-2.52-7.4-2.52-11.93s.84-8.51,2.52-11.93c1.68-3.42,4.08-6.08,7.21-7.99,3.13-1.91,6.83-2.86,11.11-2.86,5.03,0,9.13,1.2,12.27,3.59,3.15,2.39,5.16,5.77,6.04,10.13h-5.85c-.67-2.73-2.04-4.92-4.09-6.58-2.06-1.66-4.85-2.49-8.37-2.49-3.15,0-5.88.72-8.18,2.17-2.31,1.45-4.09,3.52-5.35,6.23-1.26,2.71-1.89,5.95-1.89,9.72s.63,7.02,1.89,9.72c1.26,2.71,3.04,4.78,5.35,6.23,2.31,1.45,5.03,2.17,8.18,2.17,3.52,0,6.31-.81,8.37-2.42,2.06-1.61,3.42-3.77,4.09-6.45h5.85c-.88,4.24-2.9,7.55-6.04,9.94-3.15,2.39-7.24,3.59-12.27,3.59Z" style="fill:#fff; stroke-width:0px;"/></svg>