<?xml version="1.0" encoding="UTF-8"?><svg id="Layer_1" xmlns="http://www.w3.org/2000/svg" viewBox="0 0 353.04 353.04"><circle cx="176.61" cy="176.43" r="175.79" style="fill:#fff; stroke-width:0px;"/><path d="M352.4,175.52c-.36,77.02-50.56,142.44-119.79,165.64-17.58,5.98-36.43,9.06-56,9.06C79.84,350.23,1.37,272.12.82,175.52v1.09c0,97.14,78.65,175.79,175.79,175.79,19.57,0,38.42-3.26,56-9.06,69.59-23.38,119.79-89.16,119.79-166.73v-1.09Z" style="fill:#fff; stroke-width:0px;"/><path d="M232.43,9.7C214.85,3.72,196,.64,176.43.64,79.29.64.64,79.29.64,176.43v1.09C1.18,80.92,79.65,2.81,176.43,2.81c19.57,0,38.42,3.26,56,9.06,69.41,23.2,119.43,88.62,119.79,165.64v-1.09c.18-77.57-50.02-143.35-119.79-166.73h0Z" style="fill:#fff; stroke-width:0px;"/><path d="M256.57,240.57c14.06-17.55,22.48-39.82,22.48-64.05,0-56.62-45.9-102.52-102.52-102.52s-102.52,45.9-102.52,102.52,45.9,102.52,102.52,102.52c16.11,0,31.34-3.72,44.91-10.34l27.16,9.82c5.91,2.14,12.02-2.68,11.3-8.93l-3.32-29.02Z" style="fill:#005ba5; stroke-width:0px;"/></svg>